Coordinates
version=1
nRows=21
nColumns=12
inDegrees=yes

Units are S.I. units (second, meters, Newtons, ...)
Angles are in degrees

endheader
time	SC_y	SC_z	SC_x	AC_y	AC_z	AC_x	GH_y	GH_z	GH_yy	EL_x	PS_y
       0.0              -30.31          17.27          22.07          58.06          5.597          18.81         -122.9           63.7         0.6973          72.35          131.0
   0.01268              -30.31          17.27          22.08          58.06          5.595          18.81         -122.9           63.7         0.7059          72.35          131.0
   0.02535              -30.31          17.27          22.09          58.06          5.593           18.8         -122.8          63.69         0.7149          72.35          131.0
   0.03803              -30.32          17.28          22.09          58.06          5.591           18.8         -122.8          63.68         0.7246          72.35          131.0
   0.05071              -30.32          17.28           22.1          58.06          5.588          18.79         -122.8          63.67         0.7348          72.35          131.0
   0.06339              -30.32          17.28          22.11          58.06          5.586          18.79         -122.7          63.66         0.7458          72.36          131.0
   0.07606              -30.32          17.28          22.11          58.06          5.583          18.78         -122.7          63.65         0.7575          72.36          131.0
   0.08874              -30.32          17.29          22.12          58.06           5.58          18.77         -122.7          63.64           0.77          72.36          131.0
    0.1014              -30.32          17.29          22.13          58.06          5.576          18.77         -122.6          63.62         0.7834          72.36          131.0
    0.1141              -30.32          17.29          22.14          58.05          5.573          18.76         -122.6          63.61         0.7977          72.36          130.9
    0.1268              -30.33          17.29          22.15          58.05          5.569          18.75         -122.5          63.59         0.8131          72.37          130.9
    0.1394              -30.33           17.3          22.16          58.05          5.565          18.74         -122.5          63.58         0.8297          72.37          130.9
    0.1521              -30.33           17.3          22.17          58.05           5.56          18.73         -122.4          63.56         0.8476          72.37          130.9
    0.1648              -30.33          17.31          22.19          58.05          5.556          18.72         -122.3          63.54         0.8669          72.38          130.9
    0.1775              -30.33          17.31           22.2          58.05           5.55          18.71         -122.3          63.52         0.8878          72.38          130.9
    0.1902              -30.34          17.31          22.22          58.05          5.545           18.7         -122.2           63.5         0.9105          72.38          130.8
    0.2028              -30.34          17.32          22.23          58.05          5.539          18.68         -122.1          63.48         0.9352          72.39          130.8
    0.2155              -30.34          17.33          22.25          58.04          5.532          18.67         -122.0          63.45          0.962          72.39          130.8
    0.2282              -30.35          17.33          22.27          58.04          5.525          18.65         -121.9          63.43         0.9913           72.4          130.8
    0.2409              -30.35          17.34          22.29          58.04          5.517          18.64         -121.8           63.4          1.023           72.4          130.7
    0.2535              -30.35          17.35          22.31          58.04          5.508          18.62         -121.7          63.36          1.059          72.41          130.7
